# Blender v2.78 (sub 0) OBJ File: ''
# www.blender.org
o Cube
v 1.000000 -1.000000 -1.000000
v 1.000000 -1.000000 1.000000
v -1.000000 -1.000000 1.000000
v -1.000000 -1.000000 -1.000000
v 1.000000 1.000000 -1.000000
v 0.999999 1.000000 1.000001
v -1.000000 1.000000 1.000000
v -1.000000 1.000000 -1.000000
v 1.224745 -1.224745 -0.000000
v 0.000000 -1.224745 -1.224745
v 1.224745 0.000000 -1.224744
v -0.000000 -1.224745 1.224745
v 1.224744 -0.000000 1.224745
v -1.224745 -1.224745 -0.000000
v -1.224745 -0.000000 1.224745
v -1.224745 0.000000 -1.224745
v 1.224745 1.224745 0.000001
v 0.000000 1.224745 -1.224745
v -0.000001 1.224745 1.224745
v -1.224745 1.224745 -0.000000
v 0.000000 0.000000 -1.732050
v -1.732051 0.000000 -0.000000
v -0.000000 -0.000000 1.732051
v 1.732051 0.000000 0.000000
v -0.000000 1.732051 0.000000
v 0.000000 -1.732051 -0.000000
v 1.167207 -1.167207 0.524648
v -0.524647 -1.167207 -1.167207
v 1.167207 0.524648 -1.167207
v -0.524648 -1.167207 1.167207
v 1.167207 0.524648 1.167207
v -1.167207 -1.167207 -0.524648
v -1.167207 0.524648 1.167207
v -1.167207 0.524648 -1.167207
v 1.167207 1.167207 0.524648
v -0.524647 1.167207 -1.167207
v -0.524648 1.167207 1.167207
v -1.167207 1.167207 -0.524648
v 1.167207 -1.167207 -0.524647
v 0.524648 -1.167207 -1.167207
v 1.167207 -0.524648 -1.167207
v 0.524648 -1.167207 1.167207
v 1.167207 -0.524648 1.167207
v -1.167207 -1.167207 0.524647
v -1.167207 -0.524648 1.167207
v -1.167207 -0.524648 -1.167207
v 1.167207 1.167207 -0.524647
v 0.524648 1.167207 -1.167207
v 0.524647 1.167207 1.167207
v -1.167207 1.167207 0.524647
v -0.662827 0.000000 -1.600206
v 0.662827 0.000000 -1.600206
v 0.000000 0.662827 -1.600206
v 0.000000 -0.662827 -1.600206
v -1.600206 0.000000 -0.662827
v -1.600206 0.000000 0.662827
v -1.600206 -0.662827 -0.000000
v -1.600206 0.662827 -0.000000
v -0.662827 -0.000000 1.600206
v 0.662827 -0.000000 1.600206
v -0.000000 -0.662827 1.600206
v -0.000001 0.662827 1.600206
v 1.600206 0.000000 0.662828
v 1.600206 0.000000 -0.662827
v 1.600206 -0.662827 0.000000
v 1.600206 0.662827 0.000001
v -0.000000 1.600206 0.662827
v 0.000000 1.600206 -0.662827
v 0.662827 1.600206 0.000000
v -0.662827 1.600206 -0.000000
v -0.662827 -1.600206 -0.000000
v 0.662827 -1.600206 -0.000000
v 0.000000 -1.600206 -0.662827
v 0.000000 -1.600206 0.662827
v 0.625957 -1.484126 0.636826
v 0.625957 -1.484126 -0.636826
v -0.625957 -1.484126 -0.636827
v -0.636826 1.484126 -0.625957
v 0.636827 1.484126 -0.625957
v 0.636826 1.484126 0.625957
v 1.484126 0.636826 -0.625957
v 1.484126 -0.636826 -0.625957
v 1.484126 -0.636826 0.625957
v 0.625956 0.636826 1.484126
v 0.625957 -0.636826 1.484126
v -0.625957 -0.636826 1.484126
v -1.484126 0.636826 0.625957
v -1.484126 -0.636826 0.625957
v -1.484125 -0.636826 -0.625957
v 0.625957 -0.636826 -1.484126
v 0.625958 0.636826 -1.484125
v -0.625957 0.636826 -1.484126
v -0.625957 -0.636826 -1.484126
v -1.484126 0.636826 -0.625957
v -0.625958 0.636826 1.484126
v 1.484125 0.636826 0.625958
v -0.636827 1.484126 0.625957
v -0.625957 -1.484126 0.636826
vn -0.5199 -0.7320 0.4404
vn -0.4404 0.7320 0.5199
vn 0.7320 0.4404 0.5199
vn -0.5199 0.4404 0.7320
vn -0.7320 0.4404 -0.5199
vn -0.5199 -0.4404 -0.7320
vn -0.5247 0.1820 -0.8316
vn 0.1866 0.1917 -0.9636
vn 0.1759 -0.5295 -0.8299
vn -0.8316 -0.1820 -0.5247
vn -0.9636 -0.1917 0.1866
vn -0.8299 0.5295 0.1759
vn -0.5247 -0.1820 0.8316
vn 0.1866 -0.1917 0.9636
vn 0.1759 0.5295 0.8299
vn 0.8316 -0.1820 0.5247
vn 0.9636 -0.1917 -0.1866
vn 0.8299 0.5295 -0.1759
vn 0.1820 0.8316 0.5247
vn 0.1917 0.9636 -0.1866
vn -0.5295 0.8299 -0.1759
vn -0.5247 -0.8316 -0.1820
vn 0.1866 -0.9636 -0.1917
vn 0.1759 -0.8299 0.5295
vn 0.1917 -0.9635 0.1867
vn 0.5493 -0.8220 0.1504
vn 0.5199 -0.7320 0.4404
vn 0.1504 -0.8220 -0.5493
vn 0.4404 -0.7311 -0.5210
vn 0.5247 -0.8316 -0.1820
vn -0.4404 -0.7311 -0.5210
vn -0.1504 -0.8220 -0.5493
vn -0.1866 -0.9636 -0.1917
vn -0.1867 0.9635 -0.1917
vn -0.1504 0.8220 -0.5493
vn -0.4404 0.7320 -0.5199
vn 0.5493 0.8220 -0.1504
vn 0.5210 0.7311 -0.4404
vn 0.1820 0.8316 -0.5247
vn 0.5210 0.7311 0.4404
vn 0.5493 0.8220 0.1504
vn 0.1917 0.9636 0.1866
vn 0.9635 0.1867 -0.1917
vn 0.8220 0.1504 -0.5493
vn 0.7320 0.4404 -0.5199
vn 0.8220 -0.5493 -0.1504
vn 0.7311 -0.5210 -0.4404
vn 0.8316 -0.1820 -0.5247
vn 0.7311 -0.5210 0.4404
vn 0.8220 -0.5493 0.1504
vn 0.9636 -0.1917 0.1866
vn 0.1917 0.1867 0.9635
vn 0.5493 0.1504 0.8220
vn 0.5199 0.4404 0.7320
vn 0.1504 -0.5493 0.8220
vn 0.4404 -0.5210 0.7311
vn 0.5247 -0.1820 0.8316
vn -0.4404 -0.5210 0.7311
vn -0.1504 -0.5493 0.8220
vn -0.1866 -0.1917 0.9636
vn -0.9635 0.1867 0.1917
vn -0.8220 0.1504 0.5493
vn -0.7320 0.4404 0.5199
vn -0.8220 -0.5493 0.1504
vn -0.7311 -0.5210 0.4404
vn -0.8316 -0.1820 0.5247
vn -0.7311 -0.5210 -0.4404
vn -0.8220 -0.5493 -0.1504
vn -0.9635 -0.1917 -0.1866
vn 0.1917 -0.1867 -0.9635
vn 0.5493 -0.1504 -0.8220
vn 0.5199 -0.4404 -0.7320
vn 0.1504 0.5493 -0.8220
vn 0.4404 0.5210 -0.7311
vn 0.5247 0.1820 -0.8316
vn -0.4404 0.5210 -0.7311
vn -0.1504 0.5493 -0.8220
vn -0.1866 0.1917 -0.9636
vn -0.5493 -0.1504 -0.8220
vn -0.1917 -0.1867 -0.9635
vn -0.1759 -0.5295 -0.8299
vn -0.8220 0.1504 -0.5493
vn -0.9635 0.1867 -0.1917
vn -0.8299 0.5295 -0.1759
vn -0.5493 0.1504 0.8220
vn -0.1917 0.1867 0.9635
vn -0.1759 0.5295 0.8299
vn 0.8220 0.1504 0.5493
vn 0.9635 0.1867 0.1917
vn 0.8299 0.5295 0.1759
vn -0.1504 0.8220 0.5493
vn -0.1867 0.9635 0.1917
vn -0.5295 0.8299 0.1759
vn -0.5493 -0.8220 0.1504
vn -0.1917 -0.9635 0.1867
vn -0.1759 -0.8299 0.5295
vn -0.4404 -0.7311 0.5210
vn -0.5210 0.7311 0.4404
vn 0.7311 0.5210 0.4404
vn -0.4404 0.5210 0.7311
vn -0.7311 0.5210 -0.4404
vn -0.4404 -0.5210 -0.7311
vn -0.5493 0.1504 -0.8220
vn 0.1917 0.1867 -0.9635
vn 0.1504 -0.5493 -0.8220
vn -0.8220 -0.1504 -0.5493
vn -0.9635 -0.1867 0.1917
vn -0.8220 0.5493 0.1504
vn -0.5493 -0.1504 0.8220
vn 0.1917 -0.1867 0.9635
vn 0.1504 0.5493 0.8220
vn 0.8220 -0.1504 0.5493
vn 0.9635 -0.1867 -0.1917
vn 0.8220 0.5493 -0.1504
vn 0.1504 0.8220 0.5493
vn 0.1867 0.9635 -0.1917
vn -0.5493 0.8220 -0.1504
vn -0.5493 -0.8220 -0.1504
vn 0.1917 -0.9635 -0.1867
vn 0.1504 -0.8220 0.5493
vn 0.1866 -0.9636 0.1917
vn 0.5247 -0.8316 0.1820
vn 0.4404 -0.7311 0.5210
vn 0.1759 -0.8299 -0.5295
vn 0.5199 -0.7320 -0.4404
vn 0.5493 -0.8220 -0.1504
vn -0.5199 -0.7320 -0.4404
vn -0.1759 -0.8299 -0.5295
vn -0.1917 -0.9635 -0.1867
vn -0.1917 0.9636 -0.1866
vn -0.1820 0.8316 -0.5247
vn -0.5210 0.7311 -0.4404
vn 0.5295 0.8299 -0.1759
vn 0.4404 0.7320 -0.5199
vn 0.1504 0.8220 -0.5493
vn 0.4404 0.7320 0.5199
vn 0.5295 0.8299 0.1759
vn 0.1867 0.9635 0.1917
vn 0.9636 0.1917 -0.1866
vn 0.8316 0.1820 -0.5247
vn 0.7311 0.5210 -0.4404
vn 0.8299 -0.5295 -0.1759
vn 0.7320 -0.4404 -0.5199
vn 0.8220 -0.1504 -0.5493
vn 0.7320 -0.4404 0.5199
vn 0.8299 -0.5295 0.1759
vn 0.9635 -0.1867 0.1917
vn 0.1866 0.1917 0.9636
vn 0.5247 0.1820 0.8316
vn 0.4404 0.5210 0.7311
vn 0.1759 -0.5295 0.8299
vn 0.5199 -0.4404 0.7320
vn 0.5493 -0.1504 0.8220
vn -0.5199 -0.4404 0.7320
vn -0.1759 -0.5295 0.8299
vn -0.1917 -0.1867 0.9635
vn -0.9636 0.1917 0.1866
vn -0.8316 0.1820 0.5247
vn -0.7311 0.5210 0.4404
vn -0.8299 -0.5295 0.1759
vn -0.7320 -0.4404 0.5199
vn -0.8220 -0.1504 0.5493
vn -0.7320 -0.4404 -0.5199
vn -0.8299 -0.5295 -0.1759
vn -0.9635 -0.1867 -0.1917
vn 0.1866 -0.1917 -0.9636
vn 0.5247 -0.1820 -0.8316
vn 0.4404 -0.5210 -0.7311
vn 0.1759 0.5295 -0.8299
vn 0.5199 0.4404 -0.7320
vn 0.5493 0.1504 -0.8220
vn -0.5199 0.4404 -0.7320
vn -0.1759 0.5295 -0.8299
vn -0.1917 0.1867 -0.9635
vn -0.5247 -0.1820 -0.8316
vn -0.1866 -0.1917 -0.9636
vn -0.1504 -0.5493 -0.8220
vn -0.8316 0.1820 -0.5247
vn -0.9635 0.1917 -0.1866
vn -0.8220 0.5493 -0.1504
vn -0.5247 0.1820 0.8316
vn -0.1866 0.1917 0.9636
vn -0.1504 0.5493 0.8220
vn 0.8316 0.1820 0.5247
vn 0.9636 0.1917 0.1866
vn 0.8220 0.5493 0.1504
vn -0.1820 0.8316 0.5247
vn -0.1917 0.9636 0.1866
vn -0.5493 0.8220 0.1504
vn -0.5247 -0.8316 0.1820
vn -0.1866 -0.9636 0.1917
vn -0.1504 -0.8220 0.5493
s off
f 98//1 3//1 44//1
f 97//2 7//2 37//2
f 96//3 6//3 31//3
f 95//4 7//4 33//4
f 94//5 8//5 34//5
f 93//6 4//6 46//6
f 51//7 34//7 92//7
f 91//8 21//8 53//8
f 40//9 54//9 90//9
f 55//10 46//10 89//10
f 88//11 22//11 57//11
f 50//12 58//12 87//12
f 59//13 45//13 86//13
f 85//14 23//14 61//14
f 49//15 62//15 84//15
f 63//16 43//16 83//16
f 82//17 24//17 65//17
f 47//18 66//18 81//18
f 67//19 49//19 80//19
f 79//20 25//20 69//20
f 38//21 70//21 78//21
f 71//22 32//22 77//22
f 76//23 26//23 73//23
f 42//24 74//24 75//24
f 75//25 26//25 72//25
f 27//26 72//26 9//26
f 2//27 75//27 27//27
f 40//28 73//28 10//28
f 1//29 76//29 40//29
f 39//30 72//30 76//30
f 77//31 4//31 28//31
f 73//32 28//32 10//32
f 26//33 77//33 73//33
f 78//34 25//34 68//34
f 36//35 68//35 18//35
f 8//36 78//36 36//36
f 47//37 69//37 17//37
f 5//38 79//38 47//38
f 48//39 68//39 79//39
f 80//40 6//40 35//40
f 69//41 35//41 17//41
f 25//42 80//42 69//42
f 81//43 24//43 64//43
f 29//44 64//44 11//44
f 5//45 81//45 29//45
f 39//46 65//46 9//46
f 1//47 82//47 39//47
f 41//48 64//48 82//48
f 83//49 2//49 27//49
f 65//50 27//50 9//50
f 24//51 83//51 65//51
f 84//52 23//52 60//52
f 31//53 60//53 13//53
f 6//54 84//54 31//54
f 42//55 61//55 12//55
f 2//56 85//56 42//56
f 43//57 60//57 85//57
f 86//58 3//58 30//58
f 61//59 30//59 12//59
f 23//60 86//60 61//60
f 87//61 22//61 56//61
f 33//62 56//62 15//62
f 7//63 87//63 33//63
f 44//64 57//64 14//64
f 3//65 88//65 44//65
f 45//66 56//66 88//66
f 89//67 4//67 32//67
f 57//68 32//68 14//68
f 22//69 89//69 57//69
f 90//70 21//70 52//70
f 41//71 52//71 11//71
f 1//72 90//72 41//72
f 48//73 53//73 18//73
f 5//74 91//74 48//74
f 29//75 52//75 91//75
f 92//76 8//76 36//76
f 53//77 36//77 18//77
f 21//78 92//78 53//78
f 51//79 46//79 16//79
f 21//80 93//80 51//80
f 54//81 28//81 93//81
f 55//82 34//82 16//82
f 22//83 94//83 55//83
f 58//84 38//84 94//84
f 59//85 33//85 15//85
f 23//86 95//86 59//86
f 62//87 37//87 95//87
f 63//88 31//88 13//88
f 24//89 96//89 63//89
f 66//90 35//90 96//90
f 67//91 37//91 19//91
f 25//92 97//92 67//92
f 70//93 50//93 97//93
f 71//94 44//94 14//94
f 26//95 98//95 71//95
f 74//96 30//96 98//96
f 98//97 30//97 3//97
f 97//98 50//98 7//98
f 96//99 35//99 6//99
f 95//100 37//100 7//100
f 94//101 38//101 8//101
f 93//102 28//102 4//102
f 51//103 16//103 34//103
f 91//104 52//104 21//104
f 40//105 10//105 54//105
f 55//106 16//106 46//106
f 88//107 56//107 22//107
f 50//108 20//108 58//108
f 59//109 15//109 45//109
f 85//110 60//110 23//110
f 49//111 19//111 62//111
f 63//112 13//112 43//112
f 82//113 64//113 24//113
f 47//114 17//114 66//114
f 67//115 19//115 49//115
f 79//116 68//116 25//116
f 38//117 20//117 70//117
f 71//118 14//118 32//118
f 76//119 72//119 26//119
f 42//120 12//120 74//120
f 75//121 74//121 26//121
f 27//122 75//122 72//122
f 2//123 42//123 75//123
f 40//124 76//124 73//124
f 1//125 39//125 76//125
f 39//126 9//126 72//126
f 77//127 32//127 4//127
f 73//128 77//128 28//128
f 26//129 71//129 77//129
f 78//130 70//130 25//130
f 36//131 78//131 68//131
f 8//132 38//132 78//132
f 47//133 79//133 69//133
f 5//134 48//134 79//134
f 48//135 18//135 68//135
f 80//136 49//136 6//136
f 69//137 80//137 35//137
f 25//138 67//138 80//138
f 81//139 66//139 24//139
f 29//140 81//140 64//140
f 5//141 47//141 81//141
f 39//142 82//142 65//142
f 1//143 41//143 82//143
f 41//144 11//144 64//144
f 83//145 43//145 2//145
f 65//146 83//146 27//146
f 24//147 63//147 83//147
f 84//148 62//148 23//148
f 31//149 84//149 60//149
f 6//150 49//150 84//150
f 42//151 85//151 61//151
f 2//152 43//152 85//152
f 43//153 13//153 60//153
f 86//154 45//154 3//154
f 61//155 86//155 30//155
f 23//156 59//156 86//156
f 87//157 58//157 22//157
f 33//158 87//158 56//158
f 7//159 50//159 87//159
f 44//160 88//160 57//160
f 3//161 45//161 88//161
f 45//162 15//162 56//162
f 89//163 46//163 4//163
f 57//164 89//164 32//164
f 22//165 55//165 89//165
f 90//166 54//166 21//166
f 41//167 90//167 52//167
f 1//168 40//168 90//168
f 48//169 91//169 53//169
f 5//170 29//170 91//170
f 29//171 11//171 52//171
f 92//172 34//172 8//172
f 53//173 92//173 36//173
f 21//174 51//174 92//174
f 51//175 93//175 46//175
f 21//176 54//176 93//176
f 54//177 10//177 28//177
f 55//178 94//178 34//178
f 22//179 58//179 94//179
f 58//180 20//180 38//180
f 59//181 95//181 33//181
f 23//182 62//182 95//182
f 62//183 19//183 37//183
f 63//184 96//184 31//184
f 24//185 66//185 96//185
f 66//186 17//186 35//186
f 67//187 97//187 37//187
f 25//188 70//188 97//188
f 70//189 20//189 50//189
f 71//190 98//190 44//190
f 26//191 74//191 98//191
f 74//192 12//192 30//192
